<svg width="48" height="48" viewBox="0 0 48 48" fill="none" xmlns="http://www.w3.org/2000/svg">
<rect width="48" height="48" rx="24" fill="black" fill-opacity="0.24"/>
<path fill-rule="evenodd" clip-rule="evenodd" d="M25.414 24L29.707 19.707C30.098 19.316 30.098 18.684 29.707 18.293C29.316 17.902 28.684 17.902 28.293 18.293L24 22.586L19.707 18.293C19.316 17.902 18.684 17.902 18.293 18.293C17.902 18.684 17.902 19.316 18.293 19.707L22.586 24L18.293 28.293C17.902 28.684 17.902 29.316 18.293 29.707C18.488 29.902 18.744 30 19 30C19.256 30 19.512 29.902 19.707 29.707L24 25.414L28.293 29.707C28.488 29.902 28.744 30 29 30C29.256 30 29.512 29.902 29.707 29.707C30.098 29.316 30.098 28.684 29.707 28.293L25.414 24Z" fill="white"/>
</svg>
