<svg width="120" height="24" viewBox="0 0 120 24" fill="none" xmlns="http://www.w3.org/2000/svg">
<path d="M23.25 9.52969H14.6419L12 1.5L9.35812 9.52969H0.75L7.79109 14.4703L5.04891 22.5L12 17.5238L18.9511 22.5L16.2037 14.4703L23.25 9.52969Z" fill="#FFD500"/>
<path d="M47.25 9.52969H38.6419L36 1.5L33.3581 9.52969H24.75L31.7911 14.4703L29.0489 22.5L36 17.5238L42.9511 22.5L40.2037 14.4703L47.25 9.52969Z" fill="#FFD500"/>
<path d="M71.25 9.52969H62.6419L60 1.5L57.3581 9.52969H48.75L55.7911 14.4703L53.0489 22.5L60 17.5238L66.9511 22.5L64.2037 14.4703L71.25 9.52969Z" fill="#FFD500"/>
<path d="M95.25 9.52969H86.6419L84 1.5L81.3581 9.52969H72.75L79.7911 14.4703L77.0489 22.5L84 17.5238L90.9511 22.5L88.2037 14.4703L95.25 9.52969Z" fill="#FFD500"/>
<path d="M119.25 9.52969H110.642L108 1.5L105.358 9.52969H96.75L103.791 14.4703L101.049 22.5L108 17.5238L114.951 22.5L112.204 14.4703L119.25 9.52969Z" fill="#FFD500"/>
</svg>
