<svg width="154" height="79" viewBox="0 0 154 79" fill="none" xmlns="http://www.w3.org/2000/svg">
<path d="M61.1372 2.08715V5.41646L54.9078 5.57329L54.5585 24.2588H51.0883L50.6184 5.66981L44.2564 5.82664V2.08715H61.1372Z" fill="#010101"/>
<path d="M77.6325 2.08715H81.8859V24.2468H77.7891L77.7289 14.4637H68.3427L68.1619 24.2468H64.6556L64.0893 2.08715H68.5595L68.3667 11.7978H77.6927L77.6325 2.08715Z" fill="#010101"/>
<path d="M90.9348 20.7364H101.454V24.2468H87.3682L86.802 2.08715H101.237V5.59744H91.224L91.0914 11.5445H100.514V14.1139H91.0553L90.9348 20.7364Z" fill="#010101"/>
<path d="M47.3531 49.0116C45.9313 47.8053 45.1361 45.8994 44.9915 43.3058L48.811 43.2214C48.8351 44.9584 49.2327 46.213 50.0159 46.985C50.7991 47.757 51.8113 48.1431 53.0282 48.1431C54.2572 48.1431 55.185 47.8415 55.9441 47.2142C56.7032 46.599 57.0767 45.7908 57.0767 44.7895C57.0767 44.0537 56.884 43.4385 56.5104 42.944C56.1369 42.4373 55.5826 42.0151 54.8476 41.6532C54.1127 41.3034 53.1126 40.9173 51.8474 40.4951C49.7629 39.8076 48.1483 38.9511 47.0157 37.9378C45.8831 36.9245 45.3167 35.5735 45.3167 33.8726C45.3167 32.6422 45.618 31.5565 46.2446 30.6397C46.8591 29.7229 47.7386 28.9991 48.8713 28.4925C50.0039 27.9858 51.3534 27.7205 52.8957 27.7205C58.0889 27.7205 60.824 30.0124 61.1011 34.6205L57.1611 34.8618C57.0767 33.3418 56.6791 32.2199 55.9923 31.5082C55.2935 30.7965 54.2934 30.4467 53.0041 30.4467C51.9558 30.4467 51.1365 30.7 50.534 31.2187C49.9316 31.7254 49.6183 32.4371 49.6183 33.3297C49.6183 34.3068 49.9798 35.103 50.7148 35.6941C51.4498 36.2973 52.6908 36.8883 54.4379 37.4673C55.9802 37.974 57.2575 38.4806 58.2576 38.9993C59.2577 39.5181 60.0529 40.2056 60.6433 41.038C61.2216 41.8703 61.5228 42.9198 61.5228 44.1743C61.5228 45.4289 61.1855 46.6232 60.5108 47.6244C59.836 48.6256 58.8721 49.4096 57.631 49.9766C56.3899 50.5436 54.9561 50.821 53.3294 50.821C50.7991 50.821 48.8231 50.2179 47.4013 48.9995L47.3531 49.0116Z" fill="#010101"/>
<path d="M69.0535 46.8527H79.5725V50.363H65.487L64.9207 28.2034H79.3555V31.7137H69.3427L69.2102 37.6608H78.6326V40.2302H69.1741L69.0535 46.8527Z" fill="#010101"/>
<path d="M84.6451 39.2651L80.9822 28.2034H84.4884C86.9947 32.7994 89.272 38.855 91.3444 46.3823H91.6336C92.1155 44.2954 93.0313 40.7489 94.3929 35.7548C95.6821 30.8693 96.3568 28.3481 96.393 28.2034H100.333L97.3329 37.516C96.7304 39.3617 96.0798 41.352 95.3809 43.4992C94.6821 45.6585 93.935 47.9384 93.1397 50.363H88.284C86.6453 45.4413 85.4403 41.738 84.6451 39.2651Z" fill="#010101"/>
<path d="M107.057 46.8527H117.575V50.363H103.49L102.924 28.2034H117.359V31.7137H107.346L107.213 37.6608H116.636V40.2302H107.177L107.057 46.8527Z" fill="#010101"/>
<path d="M139.336 28.2034V50.363H133.818L126.082 34.6933H125.395L125.082 50.363H121.853L121.299 28.2034H126.492C129.456 32.6546 132.468 38.4931 135.541 45.7309H135.914L136.264 28.2034H139.336Z" fill="#010101"/>
<path d="M47.3531 75.1402C45.9313 73.9339 45.1361 72.028 44.9915 69.4345L48.811 69.3501C48.8351 71.0871 49.2327 72.3417 50.0159 73.1137C50.7991 73.8858 51.8113 74.2717 53.0282 74.2717C54.2572 74.2717 55.185 73.9701 55.9441 73.3428C56.7032 72.7276 57.0767 71.9194 57.0767 70.9182C57.0767 70.1823 56.884 69.5672 56.5104 69.0727C56.1369 68.566 55.5826 68.1437 54.8476 67.7818C54.1127 67.432 53.1126 67.046 51.8474 66.6238C49.7629 65.9363 48.1483 65.0798 47.0157 64.0665C45.8831 63.0532 45.3167 61.7022 45.3167 60.0013C45.3167 58.7709 45.618 57.6851 46.2446 56.7684C46.8591 55.8516 47.7386 55.1278 48.8713 54.6212C50.0039 54.1146 51.3534 53.8491 52.8957 53.8491C58.0889 53.8491 60.824 56.1411 61.1011 60.7492L57.1611 61.0025C57.0767 59.4825 56.6791 58.3606 55.9923 57.6489C55.2935 56.9372 54.2934 56.5874 53.0041 56.5874C51.9558 56.5874 51.1365 56.8407 50.534 57.3594C49.9316 57.8781 49.6183 58.5778 49.6183 59.4704C49.6183 60.4475 49.9798 61.2438 50.7148 61.8349C51.4498 62.438 52.6908 63.0291 54.4379 63.6081C55.9802 64.1147 57.2575 64.6214 58.2576 65.1401C59.2577 65.6588 60.0529 66.3463 60.6433 67.1787C61.2216 68.011 61.5228 69.0605 61.5228 70.315C61.5228 71.5696 61.1855 72.7638 60.5108 73.765C59.836 74.7662 58.8721 75.5504 57.631 76.1174C56.3899 76.6843 54.9561 76.9617 53.3294 76.9617C50.7991 76.9617 48.8231 76.3586 47.4013 75.1402H47.3531Z" fill="#010101"/>
<path d="M80.0785 54.3196V57.6369L73.8491 57.7937L73.4997 76.4792H70.0295L69.5596 57.8903L63.1977 58.0471V54.3196H80.0785Z" fill="#010101"/>
<path d="M86.32 75.9119C85.0789 75.2243 84.1511 74.1267 83.5246 72.6308C82.898 71.135 82.5486 69.1808 82.4642 66.7562L82.2112 54.3072H86.5007L86.2838 67.5403C86.2356 69.8323 86.5971 71.4849 87.3683 72.4861C88.1273 73.4873 89.2961 73.994 90.8625 73.994C92.4289 73.994 93.7061 73.439 94.4893 72.3051C95.2845 71.1712 95.6339 69.3014 95.5616 66.6717L95.5858 54.3193H99.815L99.8391 67.0819C99.8391 70.4234 99.1402 72.9082 97.7425 74.5247C96.3448 76.1532 94.1399 76.9493 91.1396 76.9493C89.1756 76.9493 87.5731 76.6116 86.32 75.9119Z" fill="#010101"/>
<path d="M117.648 55.6342C119.226 56.5148 120.443 57.7693 121.299 59.422C122.142 61.0746 122.564 63.0528 122.564 65.3689C122.564 68.8792 121.636 71.6055 119.78 73.5476C117.925 75.4898 115.322 76.4668 111.985 76.4668H104.502L103.936 54.3072H111.985C114.165 54.3193 116.057 54.7657 117.648 55.6342ZM116.455 70.9299C117.708 69.41 118.334 67.3232 118.334 64.6935C118.334 59.7839 116.178 57.3229 111.888 57.3229C111.033 57.3229 109.852 57.3713 108.346 57.4557L108.057 73.2219H110.936C113.358 73.2219 115.202 72.4619 116.455 70.9299Z" fill="#010101"/>
<path d="M126.034 54.3196H130.504L130.106 76.4792H126.6L126.034 54.3196Z" fill="#010101"/>
<path d="M138.866 75.538C137.36 74.5971 136.203 73.258 135.384 71.5089C134.565 69.7718 134.143 67.7333 134.143 65.4172C134.143 63.1011 134.553 61.0624 135.384 59.3253C136.203 57.5883 137.372 56.2372 138.866 55.2843C140.372 54.3313 142.095 53.8609 144.059 53.8609C146.023 53.8609 147.758 54.3434 149.265 55.2843C150.771 56.2372 151.928 57.5762 152.759 59.3253C153.578 61.0624 154 63.1011 154 65.4172C154 67.7333 153.59 69.7597 152.759 71.4968C151.94 73.2339 150.771 74.573 149.265 75.5259C147.758 76.4789 146.036 76.9493 144.059 76.9493C142.095 76.9493 140.372 76.4789 138.866 75.538ZM146.542 72.9324C147.505 72.1603 148.265 71.0747 148.843 69.6513C149.421 68.2399 149.698 66.6355 149.698 64.814C149.722 62.3049 149.253 60.3387 148.325 58.9152C147.385 57.4918 146.12 56.7801 144.541 56.7801C143.373 56.7801 142.3 57.166 141.324 57.9381C140.348 58.7101 139.589 59.7959 139.011 61.2193C138.432 62.6307 138.155 64.2351 138.155 66.0566C138.155 68.5657 138.625 70.5318 139.565 71.9552C140.505 73.3786 141.77 74.0904 143.348 74.0904C144.517 74.1024 145.578 73.7044 146.542 72.9324Z" fill="#010101"/>
<path d="M35.4245 53.7884L33.8822 53.4989C32.617 60.2783 30.4241 66.0082 27.7613 69.9286C26.4359 71.8949 25.002 73.4027 23.5441 74.3798C22.0741 75.369 20.6282 75.8516 19.1461 75.8516C17.6641 75.8516 16.2061 75.369 14.7482 74.3798C12.5552 72.8961 10.4226 70.2423 8.62725 66.6596C6.83193 63.0769 5.36194 58.5774 4.41006 53.4989L1.33747 54.09C2.2773 58.891 3.66298 62.9562 5.4342 65.9478C6.32584 67.4436 7.31389 68.674 8.47061 69.5788C9.61527 70.4835 10.9527 71.0504 12.3986 71.0504C13.2421 71.0504 14.0975 70.8695 14.9048 70.4714L14.206 69.0722L14.8687 70.4956C17.2906 69.3375 19.0859 66.8888 20.592 63.5835L19.1702 62.9441L17.7484 63.5835C19.2545 66.8888 21.0619 69.3375 23.4717 70.4956L24.1345 69.0722L23.4356 70.4714C24.2308 70.8695 25.0984 71.0504 25.9418 71.0504C27.3757 71.0504 28.7252 70.4835 29.8699 69.5788C31.5929 68.2156 32.9665 66.1287 34.1594 63.5111C35.3402 60.8813 36.292 57.6968 37.0029 54.09L33.9304 53.4989L35.4245 53.7884L33.8822 53.4868C33.0026 58.0346 31.6652 61.8223 30.159 64.3435C29.412 65.6101 28.6167 66.5389 27.8817 67.1179C27.1347 67.6969 26.496 67.9141 25.8815 67.9141C25.4719 67.9141 25.1345 67.8417 24.7851 67.6608H24.761L24.7369 67.6366C23.4477 67.0697 21.8571 65.2482 20.5438 62.2687L19.122 59.0961L17.7002 62.2687C16.3869 65.2362 14.7964 67.0576 13.5071 67.6366H13.483L13.4589 67.6608C13.1095 67.8297 12.7721 67.902 12.3625 67.9141C11.7479 67.9141 11.1094 67.6848 10.3623 67.1179C9.25381 66.2614 8.03679 64.5727 6.98851 62.2325C5.94024 59.8923 5.02451 56.9127 4.36181 53.4989L1.2893 54.09C2.62675 61.183 4.90401 67.2627 7.8922 71.6898C9.38629 73.9094 11.0732 75.7068 12.9528 76.9854C14.8325 78.2641 16.917 79 19.1099 79C21.3029 79 23.3995 78.2641 25.2671 76.9854C28.0866 75.0674 30.4602 71.9793 32.4363 68.0709C34.3882 64.1625 35.9306 59.3977 36.9306 54.09L33.8581 53.4989L35.4004 53.8005H35.4245V53.7884Z" fill="#010101"/>
<path d="M35.051 23.4866L36.5692 23.1367C35.5811 18.8182 34.2195 15.1752 32.5085 12.4972C31.6531 11.1582 30.6891 10.0485 29.5927 9.24026C28.4962 8.43204 27.231 7.92537 25.8815 7.92537C25.0501 7.92537 24.2067 8.11835 23.4115 8.50437L24.1103 9.90371L23.4717 8.48029C21.0016 9.61421 19.1943 12.1112 17.7002 15.4044L19.122 16.0437L20.5438 15.4044C19.0376 12.1112 17.2423 9.61421 14.7723 8.48029L14.1336 9.90371L14.8325 8.50437C14.0373 8.10629 13.1818 7.92537 12.3624 7.92537C11.0129 7.92537 9.73571 8.43204 8.65129 9.24026C7.0126 10.4586 5.67516 12.3283 4.51844 14.6806C3.37378 17.0329 2.40986 19.8918 1.67487 23.1367L3.19307 23.4866L4.72326 23.8123C6.07276 17.4913 8.22955 12.1956 10.8201 8.57674C12.1094 6.7673 13.495 5.39218 14.8927 4.48746C16.3025 3.58274 17.6881 3.13641 19.1099 3.13641C20.5317 3.13641 21.9294 3.58274 23.3271 4.48746C25.4237 5.83851 27.4841 8.27517 29.2553 11.5925C31.0145 14.9098 32.4845 19.0716 33.4966 23.8003L35.0268 23.4745L36.5571 23.1488C35.1353 16.5142 32.8701 10.8567 29.9421 6.74322C28.4722 4.69252 26.8455 3.01577 25.0261 1.84567C23.2067 0.675561 21.1824 0 19.0859 0C16.9893 0 14.9771 0.675572 13.1576 1.85774C10.4345 3.631 8.12113 6.48989 6.16917 10.1208C4.22926 13.7518 2.68702 18.1789 1.6267 23.1609L4.68715 23.8364C5.60288 19.7712 6.90415 16.4177 8.338 14.1981C9.04889 13.0883 9.78392 12.2801 10.4707 11.7735C11.1575 11.2668 11.7599 11.0738 12.3263 11.0738C12.6998 11.0738 13.0492 11.1462 13.3986 11.3271L13.4469 11.3513C14.7241 11.882 16.3266 13.7277 17.64 16.6952L19.0618 19.8677L20.4835 16.6952C21.7969 13.7277 23.3994 11.882 24.6766 11.3513L24.7249 11.3271C25.0743 11.1582 25.4237 11.0738 25.7972 11.0738C26.3636 11.0738 26.966 11.2668 27.6528 11.7735C28.689 12.5214 29.8216 13.993 30.8217 16.0679C31.8338 18.1306 32.7375 20.7845 33.4243 23.8364L36.4848 23.1609L34.9546 23.4866H35.051Z" fill="#010101"/>
<path d="M36.7257 39.4937H35.1593C35.1593 40.2537 35.1594 40.9895 35.1353 41.7133L36.7017 41.7615L35.1353 41.6892C35.1112 42.232 35.0871 42.7628 35.063 43.2815C35.0148 44.4395 34.9305 45.5614 34.8341 46.6953V46.7435C34.81 47.214 34.7618 47.6844 34.6895 48.1549V48.1911L34.6774 48.2273C34.6051 48.9994 34.4966 49.7955 34.4002 50.5434L35.9546 50.7605L34.4123 50.5313C34.2677 51.5446 34.087 52.5097 33.8942 53.4747C33.7978 54.0175 33.6653 54.5604 33.5448 55.1394C32.6291 59.2046 31.3277 62.5581 29.8939 64.7777C29.183 65.8875 28.448 66.6957 27.7612 67.2023C27.0744 67.709 26.4719 67.9019 25.9056 67.9019C25.496 67.9019 25.1586 67.8296 24.8092 67.6487H24.7851L24.7609 67.6245C23.4717 67.0575 21.8812 65.2361 20.5679 62.2565L19.1461 59.084L17.7243 62.2565C16.4109 65.224 14.8204 67.0455 13.5311 67.6245H13.5071L13.483 67.6487C13.1336 67.8175 12.7962 67.8899 12.3865 67.9019C11.8202 67.9019 11.2177 67.709 10.5309 67.2023C9.4947 66.4544 8.36208 64.9827 7.362 62.9079C6.34987 60.8451 5.44622 58.1913 4.75942 55.1394C4.62688 54.5604 4.50642 54.0055 4.41002 53.4868C4.22929 52.5097 4.04848 51.5446 3.89185 50.5313L2.34959 50.7605L3.90391 50.5434C3.79546 49.7955 3.69909 48.9994 3.6268 48.2273V48.1911L3.61474 48.1429C3.54244 47.6724 3.49425 47.2019 3.47016 46.7315V46.6712C3.36171 45.5372 3.28942 44.4154 3.24122 43.2694V43.2573C3.21712 42.7386 3.19302 42.22 3.16893 41.6651L1.60255 41.7375L3.16893 41.6892C3.14483 40.9654 3.14481 40.2296 3.14481 39.4696C3.14481 38.7097 3.14483 37.9738 3.16893 37.25L1.60255 37.2018L3.16893 37.2741C3.19302 36.7313 3.21712 36.2005 3.24122 35.6818V35.6698C3.26532 35.0184 3.28944 34.4152 3.33763 33.8242V33.7759C3.36173 33.3054 3.40991 32.8109 3.47016 32.2921V32.2198C3.49425 31.7493 3.54244 31.2789 3.61474 30.8084V30.7601L3.6268 30.724C3.69909 29.9519 3.80751 29.1557 3.90391 28.4078L2.34959 28.1907L3.89185 28.4199C4.03643 27.4066 4.21724 26.4416 4.41002 25.4765V25.4645C4.50642 24.9337 4.63893 24.3788 4.75942 23.8119C5.67515 19.7466 6.97642 16.3932 8.41027 14.1736C9.12117 13.0638 9.85619 12.2555 10.543 11.7489C11.2298 11.2423 11.8323 11.0493 12.3986 11.0493C12.7721 11.0493 13.1215 11.1216 13.4709 11.3026L13.5192 11.3267C14.7964 11.8575 16.3989 13.7031 17.7122 16.6706L19.134 19.8432L20.5558 16.6706C21.8692 13.7031 23.4717 11.8575 24.749 11.3267L24.773 11.3147L24.7971 11.3026C25.1466 11.1337 25.496 11.0493 25.8695 11.0493C26.4358 11.0493 27.0383 11.2423 27.7251 11.7489C28.7613 12.4968 29.8939 13.9685 30.894 16.0433C31.9061 18.1061 32.8098 20.7599 33.4966 23.8119C33.6291 24.3909 33.7496 24.9458 33.846 25.4645V25.4765C34.0388 26.4416 34.2075 27.4066 34.3641 28.4199L35.9064 28.1907L34.3521 28.4078C34.4605 29.1557 34.5569 29.9519 34.6292 30.724V30.7722L34.6412 30.8084C34.7135 31.2789 34.7617 31.7493 34.7858 32.2198V32.2921C34.834 32.8109 34.8943 33.3054 34.9184 33.7759V33.8242C34.9665 34.4032 34.9907 35.0184 35.0148 35.6698V35.6818C35.0389 36.2005 35.063 36.7193 35.0871 37.2741L36.6534 37.2018L35.0871 37.25C35.1112 37.9738 35.1112 38.7097 35.1112 39.4696H38.2439C38.2439 38.7097 38.244 37.9376 38.2199 37.1415V37.1173C38.1958 36.5624 38.1717 36.0437 38.1476 35.5129V35.525C38.1235 34.8736 38.0994 34.2222 38.0391 33.5467L36.4727 33.6793L38.0391 33.607C38.015 33.0279 37.9548 32.4851 37.9066 31.9664L36.3522 32.1232L37.9186 32.0509C37.8945 31.4719 37.8343 30.9049 37.7499 30.3259L36.2076 30.5551L37.7741 30.4103C37.6897 29.5659 37.5812 28.7336 37.4848 27.9736V27.9615C37.3161 26.8879 37.1354 25.8626 36.9547 24.8976V24.9096C36.8462 24.2944 36.7137 23.6913 36.5811 23.1123C35.5931 18.7937 34.2316 15.1507 32.5206 12.4848C31.6651 11.1458 30.7012 10.036 29.6047 9.22779C28.5082 8.41957 27.2431 7.92497 25.8936 7.92497C25.0622 7.92497 24.2188 8.11795 23.4235 8.50397L24.1224 9.90331L23.4837 8.47989C21.0137 9.61381 19.2063 12.1108 17.7122 15.404L19.134 16.0433L20.5558 15.404C19.0497 12.1108 17.2544 9.61381 14.7843 8.47989L14.1457 9.90331L14.8445 8.50397C14.0493 8.10589 13.1938 7.92497 12.3745 7.92497C11.025 7.92497 9.74775 8.43163 8.66333 9.22779C7.02464 10.4461 5.6872 12.3159 4.53048 14.6682C3.38582 17.0205 2.4219 19.8793 1.68691 23.1243C1.55437 23.7033 1.42182 24.2944 1.30133 24.9217V24.9096C1.12059 25.8867 0.93985 26.8879 0.771162 27.9736V27.9857C0.66272 28.7577 0.566338 29.5901 0.481995 30.4224L2.04837 30.5672L0.506043 30.338C0.421699 30.917 0.361509 31.4839 0.337411 32.0629L1.90378 32.1353L0.337411 31.9785C0.289214 32.4972 0.228913 33.0521 0.204815 33.619L1.77126 33.6914L0.204815 33.5587C0.156618 34.2343 0.120512 34.8736 0.0964136 35.5371V35.525C0.0723154 36.0437 0.04822 36.5745 0.0241218 37.1294V37.1535C2.35353e-05 37.9496 0 38.7217 0 39.4817C0 40.2417 2.35353e-05 41.0137 0.0241218 41.8098V41.8339C0.04822 42.3888 0.0723154 42.9075 0.0964136 43.4383C0.14461 44.6325 0.228969 45.8026 0.337411 46.9727L1.90378 46.828L0.337411 46.9004C0.361509 47.4794 0.421699 48.0463 0.506043 48.6254L2.04837 48.3962L0.481995 48.5409C0.566338 49.3853 0.674769 50.2177 0.771162 50.9776V50.9897C0.93985 52.0633 1.12059 53.0886 1.30133 54.0537C1.40977 54.6568 1.54232 55.26 1.68691 55.839C2.67494 60.1575 4.03648 63.8006 5.74746 66.4665C6.60295 67.8055 7.56686 68.9152 8.66333 69.7234C9.7598 70.5317 11.025 71.0383 12.3745 71.0383C13.2179 71.0383 14.0734 70.8573 14.8807 70.4593L14.1818 69.0601L14.8445 70.4834C17.2664 69.3254 19.0617 66.8766 20.5679 63.5714L19.1461 62.932L17.7243 63.5714C19.2304 66.8766 21.0378 69.3254 23.4476 70.4834L24.1103 69.0601L23.4114 70.4593C24.2067 70.8573 25.0742 71.0383 25.9177 71.0383C27.2672 71.0383 28.5444 70.5317 29.6288 69.7234C31.2675 68.5051 32.605 66.6353 33.7617 64.283C34.9064 61.9308 35.8703 59.0718 36.6053 55.8269C36.7378 55.2479 36.8704 54.6568 36.9908 54.0416C37.1716 53.0886 37.3644 52.0633 37.521 50.9897V50.9776C37.6294 50.2056 37.7258 49.3733 37.8102 48.5409L36.2438 48.3962L37.786 48.6254C37.8704 48.0463 37.9307 47.4794 37.9548 46.9004L36.3884 46.828L37.9548 46.9727C38.0632 45.8026 38.1355 44.6205 38.1958 43.4262C38.2199 42.9075 38.2439 42.3888 38.268 41.846V41.8218C38.2921 41.0257 38.2922 40.2537 38.2922 39.4937H36.7257Z" fill="#DAE120"/>
<path d="M23.2066 39.4941H21.6403C21.6523 48.7946 20.0618 57.106 17.7122 62.269C16.3989 65.2365 14.8084 67.0579 13.5192 67.6369H13.495L13.4709 67.6611C13.1215 67.83 12.7841 67.9023 12.3745 67.9144C11.8082 67.9144 11.2057 67.7214 10.5189 67.2148C9.48264 66.4669 8.35009 64.9951 7.35001 62.9203C6.33789 60.8575 5.43416 58.2037 4.74736 55.1518C4.61482 54.5728 4.49435 54.0179 4.39796 53.4992C4.21722 52.5221 4.0365 51.557 3.87986 50.5438L2.33753 50.773L3.89185 50.5558C3.7834 49.8079 3.68703 49.0117 3.61474 48.2397V48.2035L3.60268 48.1552C3.53038 47.6848 3.48219 47.2144 3.45809 46.7439V46.6836C3.34965 45.5497 3.27735 44.4278 3.22916 43.2818V43.2698C3.20506 42.7511 3.18096 42.2323 3.15687 41.6775L1.59049 41.7498L3.15687 41.7016C3.13277 40.9778 3.13282 40.242 3.13282 39.4821C3.13282 38.7221 3.13277 37.9862 3.15687 37.2624L1.59049 37.2142L3.15687 37.2866C3.18096 36.7438 3.20506 36.213 3.22916 35.6943V35.6822C3.25326 35.0308 3.27737 34.4276 3.32557 33.8365V33.7883C3.34967 33.3179 3.39785 32.8233 3.45809 32.3046V32.2322C3.48219 31.7618 3.53038 31.2912 3.60268 30.8208V30.7726L3.61474 30.7364C3.68703 29.9644 3.79545 29.1678 3.89185 28.4199L2.33753 28.2032L3.87986 28.4324C4.02445 27.4191 4.20518 26.454 4.39796 25.489V25.4769C4.49435 24.9461 4.62687 24.3913 4.74736 23.8243C5.66309 19.7591 6.96443 16.4056 8.39828 14.186C9.10918 13.0762 9.84413 12.268 10.5309 11.7613C11.2177 11.2547 11.8202 11.0617 12.3865 11.0617C12.7601 11.0617 13.1094 11.1341 13.4589 11.315L13.5071 11.3392C14.7843 11.8699 16.3868 13.7156 17.7002 16.683C20.0498 21.8581 21.6403 30.1694 21.6282 39.47H24.7609C24.7489 29.8076 23.1584 21.1946 20.5558 15.3923C19.0497 12.0991 17.2664 9.6021 14.7843 8.46818L14.1457 9.8916L14.8445 8.49233C14.0493 8.09425 13.1938 7.91326 12.3745 7.91326C11.025 7.91326 9.74775 8.41992 8.66333 9.21608C7.02464 10.4344 5.6872 12.3042 4.53048 14.6565C3.38582 17.0088 2.4219 19.8677 1.68691 23.1126C1.55437 23.6916 1.42182 24.2824 1.30133 24.9096V24.8979C1.12059 25.875 0.93985 26.8762 0.771162 27.9619V27.9736C0.66272 28.7456 0.566338 29.5783 0.481995 30.4107L2.04837 30.5554L0.506043 30.3262C0.421699 30.9053 0.361509 31.4722 0.337411 32.0512L1.90378 32.1236L0.337411 31.9668C0.289214 32.4855 0.228913 33.0404 0.204815 33.6073L1.77126 33.6797L0.204815 33.547C0.156618 34.2226 0.120512 34.8615 0.0964136 35.525V35.5133C0.0723154 36.032 0.04822 36.5628 0.0241218 37.1177V37.1418C2.35353e-05 37.938 0 38.71 0 39.47C0 40.2299 2.35353e-05 41.002 0.0241218 41.7981V41.8222C0.04822 42.3771 0.0723154 42.8958 0.0964136 43.4266C0.14461 44.6208 0.228969 45.7909 0.337411 46.961L1.90378 46.8163L0.337411 46.8887C0.361509 47.4677 0.421699 48.0346 0.506043 48.6136L2.04837 48.3844L0.481995 48.5293C0.566338 49.3737 0.66272 50.206 0.771162 50.9659V50.9776C0.93985 52.0513 1.12059 53.0769 1.30133 54.042C1.40977 54.6451 1.54232 55.2482 1.68691 55.8273C2.67494 60.1458 4.03648 63.7889 5.74746 66.4548C6.60295 67.7938 7.56686 68.9035 8.66333 69.7117C9.7598 70.52 11.025 71.0146 12.3745 71.0146C13.2179 71.0146 14.0734 70.8336 14.8807 70.4355L14.1818 69.0363L14.8445 70.4596C17.2664 69.3016 19.0617 66.8528 20.5679 63.5476C23.1705 57.7574 24.761 49.1324 24.773 39.47H23.2066V39.4941Z" fill="#010101"/>
<path d="M30.0987 39.494H28.5323C28.5323 45.8391 27.9299 51.762 26.9057 56.744C25.8816 61.714 24.3995 65.7309 22.785 68.2038L24.0983 69.0604L24.761 67.6369C23.4717 67.0699 21.8812 65.2485 20.5679 62.269L19.1461 59.0964L17.7243 62.269C16.411 65.2364 14.8204 67.0579 13.5312 67.6369L14.1939 69.0604L15.4952 68.2038C13.8685 65.7309 12.3986 61.714 11.3744 56.744C10.3382 51.7741 9.7478 45.8512 9.7478 39.494C9.7478 33.1489 10.3502 27.226 11.3744 22.2561C12.3865 17.2861 13.8565 13.2692 15.4711 10.7721L14.1577 9.91571L13.5192 11.3391C14.7964 11.8699 16.3989 13.7155 17.7123 16.683L19.134 19.8556L20.5558 16.683C21.8692 13.7155 23.4718 11.8699 24.749 11.3391L24.1103 9.91571L22.7969 10.7721C24.4115 13.2571 25.8816 17.2861 26.8937 22.2561C27.9179 27.226 28.5203 33.1368 28.5203 39.494H31.6531C31.6531 32.9438 31.0386 26.8279 29.9662 21.6167C28.8818 16.4055 27.3636 12.0991 25.4357 9.07129L24.7128 7.93737L23.4837 8.47989C21.0137 9.61381 19.2063 12.1108 17.7122 15.404L19.134 16.0433L20.5558 15.404C19.0497 12.1108 17.2544 9.61381 14.7843 8.47989L13.5553 7.93737L12.8324 9.07129C10.8925 12.087 9.38631 16.4055 8.30189 21.6167C7.22951 26.8279 6.61498 32.9438 6.61498 39.494C6.61498 46.0442 7.22953 52.1601 8.31395 57.3713C9.39837 62.5946 10.9165 66.9011 12.8805 69.9168L13.6155 71.0507L14.8445 70.4834C17.2664 69.3254 19.0617 66.8766 20.5679 63.5714L19.1461 62.932L17.7243 63.5714C19.2304 66.8766 21.0378 69.3254 23.4476 70.4834L24.6766 71.0627L25.4117 69.9289C27.3636 66.9132 28.8818 62.6067 29.9783 57.3834C31.0506 52.1722 31.6652 46.0563 31.6772 39.5061L30.0987 39.494Z" fill="#030303"/>
<path d="M36.7257 39.4937H35.1593C35.1593 40.2537 35.1594 40.9895 35.1353 41.7133L36.7017 41.7615L35.1353 41.6892C35.1112 42.232 35.0871 42.7628 35.063 43.2815C35.0148 44.4395 34.9305 45.5614 34.8341 46.6953V46.7435C34.81 47.214 34.7618 47.6844 34.6895 48.1549V48.1911L34.6774 48.2273C34.6051 48.9994 34.4966 49.7955 34.4002 50.5434L35.9546 50.7605L34.4123 50.5313C34.2677 51.5446 34.087 52.5097 33.8942 53.4747C33.7978 54.0175 33.6653 54.5604 33.5448 55.1394C32.6291 59.2046 31.3277 62.5581 29.8939 64.7777C29.183 65.8875 28.448 66.6957 27.7612 67.2023C27.0744 67.709 26.4719 67.9019 25.9056 67.9019C25.496 67.9019 25.1586 67.8296 24.8092 67.6487H24.7851L24.7609 67.6245C23.4717 67.0575 21.8812 65.2361 20.5679 62.2565C18.2183 57.0815 16.6278 48.7705 16.6399 39.4699C16.6278 30.1694 18.2183 21.858 20.5679 16.6951C21.8813 13.7155 23.4838 11.882 24.761 11.3391L24.8092 11.315C25.1586 11.1461 25.508 11.0616 25.8815 11.0616C26.4478 11.0616 27.0503 11.2547 27.7371 11.7613C28.7734 12.5092 29.906 13.9809 30.9061 16.0557C31.9182 18.1185 32.8219 20.7723 33.5087 23.8243C33.6412 24.4033 33.7617 24.9582 33.8581 25.4769V25.4889C34.0509 26.454 34.2196 27.419 34.3762 28.4323L35.9185 28.2031L34.3641 28.4199C34.4726 29.1678 34.569 29.9643 34.6413 30.7364V30.7846L34.6533 30.8208C34.7256 31.2912 34.7738 31.7617 34.7979 32.2322V32.3045C34.8461 32.8233 34.9063 33.3178 34.9304 33.7883V33.8365C34.9786 34.4155 35.0028 35.0308 35.0269 35.6822V35.6942C35.051 36.2129 35.0751 36.7317 35.0992 37.2866L36.6655 37.2142L35.0992 37.2624C35.1232 37.9862 35.1233 38.7221 35.1233 39.482H38.256C38.256 38.7221 38.256 37.95 38.2319 37.1538V37.1297C38.2078 36.5748 38.1837 36.0561 38.1596 35.5253V35.5374C38.1355 34.886 38.1114 34.2346 38.0512 33.5591L36.4848 33.6917L38.0512 33.6194C38.0271 33.0403 37.9669 32.4975 37.9187 31.9788L36.3643 32.1356L37.9307 32.0633C37.9066 31.4843 37.8464 30.9173 37.762 30.3383L36.2197 30.5675L37.7861 30.4227C37.7017 29.5783 37.6054 28.746 37.4969 27.986V27.9739C37.3282 26.9003 37.1475 25.875 36.9667 24.91V24.922C36.8583 24.3068 36.7258 23.7036 36.5932 23.1246C35.6052 18.806 34.2437 15.163 32.5327 12.4971C31.6772 11.1581 30.7133 10.0484 29.6168 9.24019C28.5203 8.43197 27.2552 7.93737 25.9057 7.93737C25.0743 7.93737 24.2308 8.13035 23.4356 8.51637L24.1345 9.91571L23.4958 8.49229C21.0258 9.62621 19.2184 12.1232 17.7243 15.4164C15.1217 21.2066 13.5312 29.8316 13.5192 39.494C13.5312 49.1564 15.1217 57.7691 17.7243 63.5714C19.2304 66.8646 21.0258 69.3254 23.4476 70.4834L24.1103 69.0601L23.4114 70.4593C24.2067 70.8573 25.0742 71.0383 25.9177 71.0383C27.2672 71.0383 28.5444 70.532 29.6289 69.7358C31.2676 68.5175 32.605 66.6477 33.7617 64.2954C34.9064 61.9432 35.8703 59.0842 36.6053 55.8393C36.7378 55.2603 36.8704 54.6692 36.9909 54.054C37.1716 53.101 37.3644 52.0757 37.521 51.0021L37.521 50.9897C37.6294 50.2177 37.7259 49.3856 37.8102 48.5533L36.2438 48.4086L37.7861 48.6378C37.8704 48.0587 37.9307 47.4918 37.9548 46.9128L36.3884 46.8404L37.9548 46.9851C38.0632 45.815 38.1355 44.6329 38.1958 43.4386C38.2199 42.9199 38.244 42.4012 38.2681 41.8584V41.8342C38.2922 41.0381 38.2922 40.2661 38.2922 39.5061H36.7257L36.7257 39.4937Z" fill="#010101"/>
</svg>
