<svg width="71" height="36" viewBox="0 0 71 36" fill="none" xmlns="http://www.w3.org/2000/svg">
<path d="M27.8918 0.951172V2.46832L25.0498 2.53978L24.8904 11.0547H23.3073L23.0929 2.58377L20.1904 2.65523V0.951172H27.8918Z" fill="#010101"/>
<path d="M35.4174 0.951172H37.3579V11.0492H35.4889L35.4614 6.59108H31.1792L31.0968 11.0492H29.4971L29.2388 0.951172H31.2782L31.1902 5.37626H35.4449L35.4174 0.951172Z" fill="#010101"/>
<path d="M41.4861 9.44954H46.2849V11.0492H39.8589L39.6006 0.951172H46.186V2.55079H41.618L41.5575 5.26082H45.8562V6.43168H41.541L41.4861 9.44954Z" fill="#010101"/>
<path d="M21.6033 22.3343C20.9546 21.7846 20.5918 20.9161 20.5259 19.7342L22.2684 19.6957C22.2794 20.4873 22.4608 21.059 22.8181 21.4108C23.1754 21.7626 23.6372 21.9385 24.1924 21.9385C24.7531 21.9385 25.1763 21.8011 25.5226 21.5152C25.869 21.2349 26.0394 20.8666 26.0394 20.4103C26.0394 20.075 25.9514 19.7947 25.781 19.5693C25.6106 19.3384 25.3578 19.146 25.0224 18.9811C24.6871 18.8217 24.2309 18.6458 23.6537 18.4534C22.7027 18.1401 21.9661 17.7498 21.4494 17.288C20.9327 16.8263 20.6743 16.2106 20.6743 15.4355C20.6743 14.8749 20.8117 14.3801 21.0976 13.9623C21.3779 13.5446 21.7792 13.2147 22.2959 12.9839C22.8126 12.753 23.4283 12.6321 24.1319 12.6321C26.5011 12.6321 27.749 13.6765 27.8754 15.7764L26.0779 15.8863C26.0394 15.1937 25.858 14.6824 25.5447 14.3581C25.2258 14.0338 24.7696 13.8744 24.1814 13.8744C23.7031 13.8744 23.3293 13.9898 23.0545 14.2262C22.7796 14.4571 22.6367 14.7814 22.6367 15.1882C22.6367 15.6334 22.8016 15.9962 23.137 16.2656C23.4723 16.5405 24.0385 16.8098 24.8355 17.0736C25.5391 17.3045 26.1218 17.5354 26.5781 17.7718C27.0344 18.0082 27.3971 18.3215 27.6665 18.7008C27.9304 19.0801 28.0678 19.5583 28.0678 20.13C28.0678 20.7017 27.9139 21.2459 27.606 21.7022C27.2982 22.1584 26.8584 22.5157 26.2922 22.7741C25.7261 23.0324 25.0719 23.1588 24.3298 23.1588C23.1754 23.1588 22.2739 22.884 21.6253 22.3288L21.6033 22.3343Z" fill="#010101"/>
<path d="M31.5036 21.3505H36.3026V22.9501H29.8765L29.6182 12.8521H36.2036V14.4517H31.6356L31.5751 17.1617H35.8738V18.3326H31.5586L31.5036 21.3505Z" fill="#010101"/>
<path d="M38.6164 17.8928L36.9453 12.8521H38.5449C39.6883 14.9464 40.7272 17.7059 41.6727 21.1361H41.8047C42.0245 20.1851 42.4423 18.569 43.0635 16.2932C43.6517 14.0669 43.9595 12.918 43.976 12.8521H45.7735L44.4048 17.0958C44.1299 17.9368 43.8331 18.8438 43.5143 19.8223C43.1954 20.8062 42.8546 21.8452 42.4918 22.9501H40.2765C39.5289 20.7073 38.9792 19.0197 38.6164 17.8928Z" fill="#010101"/>
<path d="M48.8411 21.3505H53.64V22.9501H47.2139L46.9556 12.8521H53.541V14.4517H48.973L48.9125 17.1617H53.2112V18.3326H48.896L48.8411 21.3505Z" fill="#010101"/>
<path d="M63.5674 12.8521V22.9501H61.0498L57.5207 15.8094H57.2074L57.0645 22.9501H55.5913L55.3384 12.8521H57.7076C59.0599 14.8805 60.4341 17.541 61.8359 20.8392H62.0063L62.1657 12.8521H63.5674Z" fill="#010101"/>
<path d="M21.6033 34.241C20.9546 33.6913 20.5918 32.8228 20.5259 31.641L22.2684 31.6025C22.2794 32.3941 22.4608 32.9658 22.8181 33.3176C23.1754 33.6694 23.6372 33.8453 24.1924 33.8453C24.7531 33.8453 25.1763 33.7078 25.5226 33.422C25.869 33.1416 26.0394 32.7733 26.0394 32.3171C26.0394 31.9818 25.9514 31.7015 25.781 31.4761C25.6106 31.2452 25.3578 31.0528 25.0224 30.8879C24.6871 30.7285 24.2309 30.5526 23.6537 30.3602C22.7027 30.0468 21.9661 29.6566 21.4494 29.1948C20.9327 28.7331 20.6743 28.1174 20.6743 27.3423C20.6743 26.7816 20.8117 26.2869 21.0976 25.8691C21.3779 25.4513 21.7792 25.1215 22.2959 24.8906C22.8126 24.6598 23.4283 24.5388 24.1319 24.5388C26.5011 24.5388 27.749 25.5833 27.8754 27.6831L26.0779 27.7985C26.0394 27.1059 25.858 26.5947 25.5447 26.2704C25.2258 25.946 24.7696 25.7866 24.1814 25.7866C23.7031 25.7866 23.3293 25.9021 23.0545 26.1384C22.7796 26.3748 22.6367 26.6936 22.6367 27.1004C22.6367 27.5457 22.8016 27.9085 23.137 28.1779C23.4723 28.4527 24.0385 28.7221 24.8355 28.9859C25.5391 29.2168 26.1218 29.4477 26.5781 29.6841C27.0344 29.9204 27.3971 30.2337 27.6665 30.613C27.9304 30.9923 28.0678 31.4705 28.0678 32.0422C28.0678 32.6139 27.9139 33.1581 27.606 33.6144C27.2982 34.0706 26.8584 34.428 26.2922 34.6863C25.7261 34.9447 25.0719 35.0711 24.3298 35.0711C23.1754 35.0711 22.2739 34.7962 21.6253 34.241H21.6033Z" fill="#010101"/>
<path d="M36.5334 24.7532V26.2648L33.6914 26.3363L33.532 34.8512H31.9488L31.7344 26.3803L28.832 26.4518V24.7532H36.5334Z" fill="#010101"/>
<path d="M39.3808 34.5927C38.8147 34.2794 38.3914 33.7792 38.1055 33.0975C37.8197 32.4159 37.6603 31.5254 37.6218 30.4205L37.5063 24.7476H39.4633L39.3643 30.7778C39.3424 31.8222 39.5073 32.5753 39.8591 33.0316C40.2054 33.4878 40.7386 33.7187 41.4532 33.7187C42.1678 33.7187 42.7505 33.4658 43.1078 32.9491C43.4706 32.4324 43.63 31.5803 43.5971 30.382L43.6081 24.7531H45.5375L45.5485 30.5689C45.5485 32.0916 45.2297 33.2239 44.592 33.9605C43.9544 34.7026 42.9484 35.0654 41.5797 35.0654C40.6836 35.0654 39.9525 34.9115 39.3808 34.5927Z" fill="#010101"/>
<path d="M53.6731 25.3523C54.3932 25.7535 54.9484 26.3252 55.3387 27.0783C55.7235 27.8314 55.9159 28.7329 55.9159 29.7883C55.9159 31.3879 55.4926 32.6303 54.6461 33.5153C53.7995 34.4003 52.6122 34.8455 51.0895 34.8455H47.6758L47.4175 24.7476H51.0895C52.0844 24.7531 52.9475 24.9565 53.6731 25.3523ZM53.1289 32.3224C53.7006 31.6298 53.9864 30.6789 53.9864 29.4805C53.9864 27.2432 53.0024 26.1218 51.0455 26.1218C50.6552 26.1218 50.1165 26.1438 49.4294 26.1823L49.2975 33.3669H50.6112C51.7161 33.3669 52.5572 33.0206 53.1289 32.3224Z" fill="#010101"/>
<path d="M57.499 24.7532H59.5384L59.357 34.8512H57.7574L57.499 24.7532Z" fill="#010101"/>
<path d="M63.3531 34.4223C62.666 33.9936 62.1382 33.3834 61.7645 32.5863C61.3907 31.7947 61.1982 30.8658 61.1982 29.8103C61.1982 28.7549 61.3852 27.8259 61.7645 27.0343C62.1382 26.2428 62.6715 25.6271 63.3531 25.1928C64.0402 24.7586 64.8263 24.5442 65.7223 24.5442C66.6184 24.5442 67.4099 24.7641 68.097 25.1928C68.7842 25.6271 69.3119 26.2373 69.6912 27.0343C70.065 27.8259 70.2574 28.7549 70.2574 29.8103C70.2574 30.8658 70.0705 31.7892 69.6912 32.5808C69.3174 33.3724 68.7842 33.9826 68.097 34.4168C67.4099 34.8511 66.6239 35.0655 65.7223 35.0655C64.8263 35.0655 64.0402 34.8511 63.3531 34.4223ZM66.8547 33.235C67.2945 32.8832 67.6408 32.3884 67.9046 31.7398C68.1685 31.0966 68.2949 30.3655 68.2949 29.5355C68.3059 28.3921 68.0915 27.4961 67.6682 26.8474C67.2395 26.1988 66.6623 25.8745 65.9422 25.8745C65.409 25.8745 64.9198 26.0503 64.4745 26.4022C64.0293 26.754 63.6829 27.2487 63.4191 27.8974C63.1552 28.5405 63.0288 29.2717 63.0288 30.1017C63.0288 31.2451 63.2431 32.141 63.6719 32.7897C64.1007 33.4383 64.6779 33.7627 65.398 33.7627C65.9312 33.7682 66.4149 33.5868 66.8547 33.235Z" fill="#010101"/>
<path d="M16.1614 24.511L15.4578 24.379C14.8806 27.4684 13.8802 30.0794 12.6653 31.866C12.0607 32.762 11.4065 33.4491 10.7414 33.8943C10.0708 34.3451 9.4111 34.565 8.73496 34.565C8.05883 34.565 7.39368 34.3451 6.72854 33.8943C5.72808 33.2182 4.75513 32.0089 3.93608 30.3763C3.11702 28.7437 2.44639 26.6933 2.01212 24.379L0.610355 24.6484C1.03912 26.8362 1.67129 28.6887 2.47935 30.0519C2.88613 30.7336 3.3369 31.2943 3.86461 31.7065C4.38683 32.1188 4.997 32.3772 5.65665 32.3772C6.04144 32.3772 6.4317 32.2947 6.8 32.1133L6.4812 31.4757L6.78353 32.1243C7.88843 31.5966 8.70749 30.4807 9.39461 28.9745L8.74597 28.6832L8.09729 28.9745C8.78442 30.4807 9.60897 31.5966 10.7084 32.1243L11.0107 31.4757L10.6919 32.1133C11.0547 32.2947 11.4505 32.3772 11.8353 32.3772C12.4894 32.3772 13.1051 32.1188 13.6273 31.7065C14.4134 31.0854 15.0401 30.1344 15.5843 28.9415C16.123 27.7432 16.5572 26.292 16.8815 24.6484L15.4798 24.379L16.1614 24.511L15.4578 24.3735C15.0565 26.4459 14.4464 28.172 13.7592 29.3209C13.4184 29.898 13.0556 30.3213 12.7203 30.5851C12.3795 30.849 12.0881 30.9479 11.8078 30.9479C11.6209 30.9479 11.467 30.915 11.3076 30.8325H11.2966L11.2856 30.8215C10.6974 30.5632 9.97178 29.7331 9.3726 28.3754L8.72396 26.9297L8.07531 28.3754C7.47614 29.7276 6.75054 30.5577 6.16236 30.8215H6.15136L6.14035 30.8325C5.98094 30.9095 5.82704 30.9425 5.64014 30.9479C5.35979 30.9479 5.06846 30.8435 4.72765 30.5851C4.22192 30.1948 3.6667 29.4253 3.18846 28.3589C2.71022 27.2925 2.29245 25.9347 1.99011 24.379L0.588379 24.6484C1.19855 27.8806 2.23747 30.6511 3.60073 32.6685C4.28236 33.68 5.05195 34.499 5.90949 35.0817C6.76702 35.6644 7.718 35.9997 8.71846 35.9997C9.71891 35.9997 10.6754 35.6644 11.5275 35.0817C12.8138 34.2077 13.8966 32.8004 14.7982 31.0194C15.6887 29.2384 16.3923 27.0671 16.8486 24.6484L15.4468 24.379L16.1504 24.5165H16.1614V24.511Z" fill="#010101"/>
<path d="M15.9909 10.7027L16.6835 10.5433C16.2328 8.57534 15.6116 6.91524 14.831 5.6949C14.4407 5.08473 14.001 4.57903 13.5007 4.21073C13.0005 3.84243 12.4233 3.61154 11.8077 3.61154C11.4284 3.61154 11.0436 3.69949 10.6808 3.87539L10.9996 4.51306L10.7083 3.86442C9.58136 4.38114 8.75682 5.51902 8.07519 7.0197L8.72383 7.31103L9.37248 7.0197C8.68535 5.51902 7.86631 4.38114 6.73942 3.86442L6.44806 4.51306L6.7669 3.87539C6.40409 3.69399 6.01381 3.61154 5.64002 3.61154C5.02435 3.61154 4.44166 3.84243 3.94692 4.21073C3.19933 4.76593 2.58917 5.61794 2.06145 6.68986C1.53923 7.76178 1.09948 9.06458 0.764163 10.5433L1.45679 10.7027L2.15489 10.8511C2.77056 7.97067 3.75452 5.55748 4.93638 3.90837C5.52456 3.08382 6.15672 2.45718 6.79438 2.04491C7.43753 1.63263 8.06968 1.42924 8.71833 1.42924C9.36698 1.42924 10.0046 1.63263 10.6423 2.04491C11.5988 2.66057 12.5388 3.77095 13.3468 5.28263C14.1494 6.79431 14.82 8.69081 15.2818 10.8456L15.9799 10.6972L16.678 10.5488C16.0294 7.52542 14.996 4.94733 13.6602 3.07285C12.9895 2.13835 12.2474 1.37427 11.4174 0.84106C10.5873 0.307849 9.66384 0 8.70736 0C7.75088 0 6.83285 0.307854 6.0028 0.846562C4.76048 1.65462 3.70506 2.9574 2.81454 4.61201C1.92952 6.26661 1.22593 8.28401 0.742188 10.5543L2.13842 10.8621C2.55619 9.00962 3.14985 7.48145 3.804 6.47C4.12832 5.96428 4.46365 5.59597 4.77698 5.3651C5.09031 5.13422 5.36515 5.04626 5.62351 5.04626C5.79392 5.04626 5.95334 5.07925 6.11275 5.16171L6.12376 5.16721L6.13476 5.17271C6.71744 5.41458 7.44854 6.25562 8.04771 7.60789L8.69636 9.05361L9.345 7.60789C9.94418 6.25562 10.6753 5.41458 11.258 5.17271L11.269 5.16721L11.28 5.16171C11.4394 5.08475 11.5988 5.04626 11.7692 5.04626C12.0276 5.04626 12.3024 5.13422 12.6157 5.3651C13.0885 5.70591 13.6052 6.37654 14.0615 7.32203C14.5232 8.26202 14.9355 9.47137 15.2488 10.8621L16.6451 10.5543L15.9469 10.7027H15.9909Z" fill="#010101"/>
<path d="M16.7549 17.997H16.0403C16.0403 18.3433 16.0403 18.6787 16.0293 19.0085L16.7439 19.0305L16.0293 18.9975C16.0183 19.2448 16.0073 19.4867 15.9963 19.7231C15.9744 20.2508 15.9359 20.762 15.8919 21.2788V21.2898V21.3007C15.8809 21.5151 15.8589 21.7295 15.8259 21.9439V21.9604L15.8204 21.9769C15.7875 22.3287 15.738 22.6915 15.694 23.0323L16.4031 23.1312L15.6995 23.0268C15.6335 23.4886 15.5511 23.9283 15.4631 24.3681C15.4191 24.6154 15.3587 24.8628 15.3037 25.1267C14.8859 26.9792 14.2922 28.5073 13.6381 29.5188C13.3138 30.0245 12.9785 30.3928 12.6652 30.6237C12.3518 30.8546 12.0769 30.9425 11.8186 30.9425C11.6317 30.9425 11.4778 30.9095 11.3184 30.8271H11.3074L11.2964 30.8161C10.7082 30.5577 9.98259 29.7277 9.38341 28.3699L8.73477 26.9242L8.08613 28.3699C7.48695 29.7222 6.76132 30.5522 6.17314 30.8161H6.16217L6.15116 30.8271C5.99175 30.904 5.83785 30.937 5.65095 30.9425C5.39259 30.9425 5.11772 30.8546 4.80439 30.6237C4.33165 30.2829 3.81492 29.6122 3.35867 28.6667C2.89692 27.7267 2.48466 26.5174 2.17133 25.1267C2.11086 24.8628 2.0559 24.6099 2.01193 24.3736C1.92947 23.9283 1.84699 23.4886 1.77553 23.0268L1.07193 23.1312L1.78103 23.0323C1.73156 22.6915 1.68759 22.3287 1.65461 21.9769V21.9604L1.64911 21.9384C1.61612 21.724 1.59414 21.5096 1.58314 21.2952V21.2843V21.2677C1.53367 20.751 1.50069 20.2398 1.4787 19.7176V19.7121C1.46771 19.4757 1.45671 19.2394 1.44572 18.9865L0.731113 19.0195L1.44572 18.9975C1.43472 18.6677 1.43471 18.3324 1.43471 17.986C1.43471 17.6397 1.43472 17.3044 1.44572 16.9746L0.731113 16.9526L1.44572 16.9856C1.45671 16.7382 1.46771 16.4963 1.4787 16.26V16.2545C1.48969 15.9576 1.5007 15.6828 1.52268 15.4134V15.4024V15.3914C1.53368 15.1771 1.55566 14.9517 1.58314 14.7153V14.6988V14.6823C1.59414 14.4679 1.61612 14.2536 1.64911 14.0392V14.0172L1.65461 14.0007C1.68759 13.6489 1.73705 13.2861 1.78103 12.9453L1.07193 12.8463L1.77553 12.9508C1.84149 12.489 1.92398 12.0492 2.01193 11.6095V11.604C2.0559 11.3621 2.11636 11.1093 2.17133 10.8509C2.5891 8.9984 3.18276 7.47023 3.83691 6.45878C4.16123 5.95305 4.49656 5.58475 4.80989 5.35387C5.12322 5.123 5.39809 5.03507 5.65645 5.03507C5.82686 5.03507 5.98625 5.06803 6.14566 5.15049L6.15667 5.15599L6.16767 5.16149C6.75036 5.40336 7.48145 6.2444 8.08062 7.59667L8.72927 9.04238L9.37791 7.59667C9.97709 6.2444 10.7082 5.40336 11.2909 5.16149L11.3019 5.15599L11.3129 5.15049C11.4723 5.07353 11.6317 5.03507 11.8021 5.03507C12.0605 5.03507 12.3353 5.123 12.6486 5.35387C13.1214 5.69469 13.6381 6.36532 14.0944 7.31081C14.5561 8.2508 14.9684 9.46015 15.2817 10.8509C15.3422 11.1147 15.3972 11.3676 15.4411 11.604V11.6095C15.5291 12.0492 15.606 12.489 15.6775 12.9508L16.3811 12.8463L15.672 12.9453C15.7215 13.2861 15.7654 13.6489 15.7984 14.0007V14.0227L15.8039 14.0392C15.8369 14.2536 15.8589 14.4679 15.8699 14.6823V14.6988V14.7153C15.8919 14.9517 15.9194 15.1771 15.9303 15.3914V15.4024V15.4134C15.9523 15.6773 15.9633 15.9576 15.9743 16.2545V16.26C15.9853 16.4963 15.9963 16.7327 16.0073 16.9856L16.7219 16.9526L16.0073 16.9746C16.0183 17.3044 16.0183 17.6397 16.0183 17.986H17.4475C17.4475 17.6397 17.4476 17.2879 17.4366 16.9251V16.9141C17.4256 16.6613 17.4146 16.4249 17.4036 16.183V16.1885C17.3926 15.8917 17.3816 15.5948 17.3541 15.287L16.6395 15.3474L17.3541 15.3145C17.3431 15.0506 17.3156 14.8033 17.2936 14.5669L16.5845 14.6383L17.2991 14.6054C17.2881 14.3415 17.2606 14.0832 17.2222 13.8193L16.5185 13.9237L17.2332 13.8578C17.1947 13.473 17.1452 13.0937 17.1012 12.7474V12.7419C17.0243 12.2526 16.9418 11.7854 16.8593 11.3456V11.3511C16.8099 11.0708 16.7494 10.7959 16.6889 10.5321C16.2382 8.56416 15.617 6.90406 14.8364 5.68922C14.4462 5.07905 14.0064 4.57332 13.5062 4.20502C13.0059 3.83672 12.4288 3.61133 11.8131 3.61133C11.4338 3.61133 11.049 3.69927 10.6862 3.87517L11.005 4.51285L10.7137 3.8642C9.58679 4.38092 8.76225 5.5188 8.08062 7.01949L8.72927 7.31081L9.37791 7.01949C8.69078 5.5188 7.87174 4.38092 6.74485 3.8642L6.45349 4.51285L6.77233 3.87517C6.40953 3.69377 6.01925 3.61133 5.64545 3.61133C5.02978 3.61133 4.44709 3.84221 3.95236 4.20502C3.20476 4.76021 2.5946 5.61226 2.06688 6.68418C1.54467 7.75609 1.10491 9.05886 0.769596 10.5376C0.709129 10.8014 0.648658 11.0708 0.593687 11.3566V11.3511C0.511232 11.7964 0.428775 12.2526 0.351817 12.7474V12.7529C0.302344 13.1047 0.258373 13.484 0.219894 13.8633L0.9345 13.9292L0.230865 13.8248C0.192386 14.0887 0.164927 14.347 0.153933 14.6109L0.868538 14.6438L0.153933 14.5724C0.131945 14.8088 0.104434 15.0616 0.0934399 15.32L0.808079 15.353L0.0934399 15.2925C0.0714518 15.6003 0.0549796 15.8917 0.0439855 16.194V16.1885C0.0329915 16.4249 0.0219988 16.6668 0.0110048 16.9196V16.9306C1.07366e-05 17.2934 0 17.6452 0 17.9915C0 18.3379 1.07366e-05 18.6897 0.0110048 19.0525V19.0634C0.0219988 19.3163 0.0329915 19.5527 0.0439855 19.7945C0.0659736 20.3388 0.104459 20.872 0.153933 21.4052L0.868538 21.3392L0.153933 21.3722C0.164927 21.636 0.192386 21.8944 0.230865 22.1583L0.9345 22.0538L0.219894 22.1198C0.258373 22.5046 0.307841 22.8839 0.351817 23.2302V23.2357C0.428775 23.7249 0.511232 24.1922 0.593687 24.6319C0.643161 24.9068 0.703632 25.1816 0.769596 25.4455C1.22035 27.4134 1.84151 29.0735 2.62209 30.2884C3.01238 30.8985 3.45213 31.4042 3.95236 31.7725C4.45259 32.1408 5.02978 32.3717 5.64545 32.3717C6.03024 32.3717 6.42054 32.2893 6.78884 32.1079L6.47 31.4702L6.77233 32.1189C7.87723 31.5911 8.69629 30.4753 9.38341 28.9691L8.73477 28.6777L8.08613 28.9691C8.77325 30.4753 9.59781 31.5911 10.6972 32.1189L10.9995 31.4702L10.6807 32.1079C11.0435 32.2893 11.4393 32.3717 11.8241 32.3717C12.4398 32.3717 13.0225 32.1408 13.5172 31.7725C14.2648 31.2173 14.8749 30.3653 15.4027 29.2934C15.9249 28.2215 16.3646 26.9187 16.6999 25.44C16.7604 25.1761 16.8209 24.9068 16.8759 24.6264C16.9583 24.1922 17.0463 23.7249 17.1177 23.2357V23.2302C17.1672 22.8784 17.2112 22.4991 17.2496 22.1198L16.535 22.0538L17.2386 22.1583C17.2771 21.8944 17.3046 21.636 17.3156 21.3722L16.601 21.3392L17.3156 21.4052C17.3651 20.872 17.3981 20.3333 17.4256 19.789C17.4365 19.5527 17.4475 19.3163 17.4585 19.0689V19.0579C17.4695 18.6951 17.4695 18.3433 17.4695 17.997H16.7549Z" fill="#DAE120"/>
<path d="M10.5873 17.9971H9.87266C9.87815 22.2353 9.15254 26.0228 8.08062 28.3756C7.48145 29.7278 6.75585 30.5578 6.16767 30.8217H6.15667L6.14566 30.8327C5.98625 30.9097 5.83235 30.9426 5.64545 30.9481C5.38709 30.9481 5.11222 30.8602 4.79889 30.6293C4.32614 30.2885 3.80945 29.6178 3.3532 28.6723C2.89145 27.7324 2.47916 26.523 2.16583 25.1323C2.10536 24.8684 2.0504 24.6156 2.00643 24.3792C1.92397 23.934 1.84152 23.4942 1.77006 23.0324L1.06642 23.1369L1.77553 23.0379C1.72605 22.6971 1.68209 22.3343 1.64911 21.9825V21.966L1.6436 21.944C1.61062 21.7296 1.58864 21.5152 1.57764 21.3009V21.2899V21.2734C1.52817 20.7567 1.49518 20.2454 1.4732 19.7232V19.7177C1.4622 19.4813 1.45121 19.245 1.44022 18.9921L0.72561 19.0251L1.44022 19.0031C1.42922 18.6733 1.42924 18.338 1.42924 17.9917C1.42924 17.6454 1.42922 17.31 1.44022 16.9802L0.72561 16.9582L1.44022 16.9912C1.45121 16.7439 1.4622 16.502 1.4732 16.2656V16.2601C1.48419 15.9633 1.49519 15.6884 1.51718 15.419V15.4081V15.3971C1.52818 15.1827 1.55016 14.9573 1.57764 14.7209V14.7044V14.688C1.58864 14.4736 1.61062 14.2592 1.6436 14.0448V14.0228L1.64911 14.0063C1.68209 13.6545 1.73155 13.2917 1.77553 12.9509L1.06642 12.8519L1.77006 12.9564C1.83602 12.4946 1.91847 12.0549 2.00643 11.6151V11.6096C2.0504 11.3677 2.11086 11.1149 2.16583 10.8565C2.5836 9.00403 3.17729 7.47586 3.83144 6.46441C4.15576 5.95869 4.49106 5.59038 4.80439 5.35951C5.11772 5.12863 5.39259 5.04067 5.65095 5.04067C5.82136 5.04067 5.98075 5.07366 6.14016 5.15612L6.15116 5.16162L6.16217 5.16712C6.74485 5.40899 7.47595 6.25003 8.07512 7.6023C9.14704 9.96052 9.87265 13.748 9.86715 17.9862H11.2964C11.2909 13.5831 10.5653 9.65818 9.37791 7.01411C8.69078 5.51343 7.87724 4.37555 6.74485 3.85883L6.45349 4.50748L6.77233 3.86984C6.40953 3.68844 6.01925 3.60596 5.64545 3.60596C5.02978 3.60596 4.44709 3.83684 3.95236 4.19964C3.20476 4.75484 2.5946 5.60689 2.06688 6.6788C1.54467 7.75072 1.10491 9.05352 0.769596 10.5322C0.709129 10.7961 0.648658 11.0654 0.593687 11.3513V11.3458C0.511232 11.791 0.428775 12.2473 0.351817 12.742V12.7475C0.302344 13.0993 0.258373 13.4786 0.219894 13.8579L0.9345 13.9239L0.230865 13.8194C0.192386 14.0833 0.164927 14.3416 0.153933 14.6055L0.868538 14.6385L0.153933 14.567C0.131945 14.8034 0.104434 15.0562 0.0934399 15.3146L0.808079 15.3476L0.0934399 15.2871C0.0714518 15.595 0.0549796 15.8863 0.0439855 16.1886V16.1831C0.0329915 16.4195 0.0219988 16.6614 0.0110048 16.9143V16.9253C1.07366e-05 17.2881 0 17.6399 0 17.9862C0 18.3325 1.07366e-05 18.6843 0.0110048 19.0471V19.0581C0.0219988 19.3109 0.0329915 19.5473 0.0439855 19.7892C0.0659736 20.3334 0.104459 20.8666 0.153933 21.3998L0.868538 21.3338L0.153933 21.3668C0.164927 21.6307 0.192386 21.889 0.230865 22.1529L0.9345 22.0484L0.219894 22.1144C0.258373 22.4992 0.302344 22.8785 0.351817 23.2248V23.2303C0.428775 23.7196 0.511232 24.1868 0.593687 24.6265C0.643161 24.9014 0.703632 25.1762 0.769596 25.4401C1.22035 27.408 1.84151 29.0682 2.62209 30.283C3.01238 30.8932 3.45213 31.3989 3.95236 31.7672C4.45259 32.1355 5.02978 32.3609 5.64545 32.3609C6.03024 32.3609 6.42054 32.2784 6.78884 32.097L6.47 31.4594L6.77233 32.108C7.87723 31.5803 8.69629 30.4644 9.38341 28.9582C10.5708 26.3196 11.2964 22.3893 11.3019 17.9862H10.5873V17.9971Z" fill="#010101"/>
<path d="M13.7317 17.9971H13.0171C13.0171 20.8886 12.7423 23.5876 12.2751 25.8579C11.8078 28.1226 11.1317 29.9531 10.3951 31.08L10.9942 31.4704L11.2966 30.8217C10.7084 30.5633 9.9828 29.7333 9.38362 28.3755L8.73498 26.9298L8.08633 28.3755C7.48716 29.7278 6.76153 30.5578 6.17335 30.8217L6.47571 31.4704L7.06937 31.08C6.32727 29.9531 5.65664 28.1226 5.1894 25.8579C4.71665 23.5931 4.44731 20.8941 4.44731 17.9971C4.44731 15.1057 4.72215 12.4067 5.1894 10.1419C5.65114 7.87713 6.32179 6.04661 7.05839 4.90873L6.45921 4.51846L6.16788 5.16711C6.75056 5.40898 7.48166 6.25002 8.08083 7.60228L8.72948 9.048L9.37812 7.60228C9.9773 6.25002 10.7084 5.40898 11.2911 5.16711L10.9997 4.51846L10.4006 4.90873C11.1372 6.04111 11.8078 7.87713 12.2696 10.1419C12.7368 12.4067 13.0116 15.1002 13.0116 17.9971H14.4409C14.4409 15.0122 14.1605 12.2253 13.6713 9.85054C13.1766 7.47583 12.4839 5.51342 11.6044 4.13366L11.2746 3.61694L10.7139 3.86432C9.587 4.38104 8.76246 5.51891 8.08083 7.0196L8.72948 7.31092L9.37812 7.0196C8.69099 5.51891 7.87195 4.38104 6.74506 3.86432L6.18435 3.61694L5.85455 4.13366C4.96953 5.50792 4.28239 7.47583 3.78766 9.85054C3.29843 12.2253 3.01807 15.0122 3.01807 17.9971C3.01807 20.982 3.29843 23.769 3.79316 26.1437C4.2879 28.5239 4.98051 30.4864 5.87652 31.8606L6.21183 32.3773L6.77254 32.119C7.87744 31.5913 8.6965 30.4754 9.38362 28.9692L8.73498 28.6778L8.08633 28.9692C8.77346 30.4754 9.59801 31.5913 10.6974 32.119L11.2581 32.3828L11.5934 31.8661C12.484 30.4919 13.1766 28.5294 13.6768 26.1492C14.166 23.7745 14.4464 20.9875 14.4519 18.0026L13.7317 17.9971Z" fill="#030303"/>
<path d="M16.7547 17.9971H16.0401C16.0401 18.3434 16.0401 18.6788 16.0291 19.0086L16.7437 19.0306L16.0291 18.9976C16.0181 19.245 16.0071 19.4868 15.9962 19.7232C15.9742 20.2509 15.9357 20.7621 15.8917 21.2789V21.2899V21.3008C15.8807 21.5152 15.8587 21.7296 15.8257 21.944V21.9605L15.8202 21.977C15.7873 22.3288 15.7378 22.6916 15.6938 23.0324L16.4029 23.1314L15.6993 23.0269C15.6333 23.4887 15.5509 23.9284 15.4629 24.3682C15.4189 24.6156 15.3585 24.8629 15.3035 25.1268C14.8857 26.9793 14.2921 28.5074 13.6379 29.5189C13.3136 30.0246 12.9783 30.3929 12.665 30.6238C12.3516 30.8547 12.0768 30.9426 11.8184 30.9426C11.6315 30.9426 11.4776 30.9096 11.3182 30.8272H11.3072L11.2962 30.8162C10.708 30.5578 9.9824 29.7278 9.38322 28.37C8.3113 26.0118 7.58569 22.2244 7.59119 17.9862C7.58569 13.748 8.3113 9.96051 9.38322 7.60778C9.9824 6.25002 10.7135 5.41447 11.2962 5.16711L11.3072 5.1616L11.3182 5.1561C11.4776 5.07914 11.637 5.04065 11.8074 5.04065C12.0658 5.04065 12.3406 5.12861 12.654 5.35949C13.1267 5.7003 13.6434 6.37094 14.0997 7.31643C14.5614 8.25642 14.9737 9.46576 15.287 10.8565C15.3475 11.1204 15.4025 11.3732 15.4464 11.6096V11.6151C15.5344 12.0549 15.6114 12.4946 15.6828 12.9564L16.3864 12.8519L15.6773 12.9509C15.7268 13.2917 15.7708 13.6545 15.8037 14.0063V14.0283L15.8092 14.0448C15.8422 14.2592 15.8642 14.4736 15.8752 14.6879V14.7044V14.7209C15.8972 14.9573 15.9247 15.1827 15.9357 15.397V15.4081V15.419C15.9576 15.6829 15.9686 15.9632 15.9796 16.2601V16.2656C15.9906 16.502 16.0016 16.7383 16.0126 16.9912L16.7272 16.9582L16.0126 16.9802C16.0236 17.31 16.0236 17.6453 16.0236 17.9917H17.4528C17.4528 17.6453 17.4528 17.2935 17.4418 16.9307V16.9197C17.4308 16.6669 17.4198 16.4305 17.4089 16.1886V16.1941C17.3979 15.8973 17.3869 15.6004 17.3594 15.2926L16.6448 15.3531L17.3594 15.3201C17.3484 15.0562 17.3209 14.8089 17.2989 14.5725L16.5898 14.644L17.3044 14.611C17.2934 14.3471 17.266 14.0888 17.2275 13.8249L16.5238 13.9294L17.2384 13.8634C17.2 13.4786 17.156 13.0993 17.1065 12.753V12.7475C17.0296 12.2582 16.9471 11.791 16.8647 11.3513V11.3568C16.8152 11.0764 16.7547 10.8015 16.6943 10.5377C16.2435 8.56974 15.6223 6.90964 14.8418 5.6948C14.4515 5.08463 14.0117 4.57893 13.5115 4.21063C13.0113 3.84233 12.4341 3.61694 11.8184 3.61694C11.4391 3.61694 11.0543 3.70488 10.6915 3.88079L11.0104 4.51846L10.719 3.86982C9.59211 4.38654 8.76756 5.52442 8.08593 7.0251C6.89858 9.66367 6.17298 13.594 6.16748 17.9971C6.17298 22.4002 6.89858 26.3251 8.08593 28.9692C8.77306 30.4699 9.59212 31.5913 10.697 32.119L10.9993 31.4704L10.6805 32.108C11.0433 32.2894 11.4391 32.3718 11.8239 32.3718C12.4396 32.3718 13.0223 32.141 13.517 31.7782C14.2646 31.223 14.8748 30.3709 15.4025 29.299C15.9247 28.2271 16.3644 26.9243 16.6998 25.4456C16.7602 25.1817 16.8207 24.9124 16.8757 24.632C16.9581 24.1978 17.0461 23.7305 17.1175 23.2413V23.2358C17.167 22.884 17.211 22.5047 17.2495 22.1254L16.5348 22.0594L17.2384 22.1639C17.2769 21.9 17.3044 21.6417 17.3154 21.3778L16.6008 21.3448L17.3154 21.4108C17.3649 20.8776 17.3979 20.3389 17.4254 19.7947C17.4364 19.5583 17.4473 19.3219 17.4583 19.0746V19.0636C17.4693 18.7007 17.4693 18.3489 17.4693 18.0026H16.7547V17.9971Z" fill="#010101"/>
</svg>
